<svg width="21" height="21" viewBox="0 0 21 21" fill="none" xmlns="http://www.w3.org/2000/svg">
<path d="M10.5 0.91864C8.60462 0.91864 6.75178 1.48126 5.17581 2.53536C3.59984 3.58945 2.37152 5.08768 1.64618 6.84057C0.920839 8.59347 0.731057 10.5223 1.10083 12.3832C1.47061 14.244 2.38333 15.9533 3.72358 17.295C5.06384 18.6366 6.77142 19.5502 8.63041 19.9204C10.4894 20.2905 12.4163 20.1005 14.1674 19.3745C15.9185 18.6484 17.4152 17.4188 18.4683 15.8413C19.5213 14.2637 20.0834 12.409 20.0834 10.5117C20.0834 9.25189 19.8355 8.00445 19.3539 6.84057C18.8723 5.67669 18.1664 4.61917 17.2765 3.72837C16.3866 2.83758 15.3301 2.13096 14.1674 1.64887C13.0047 1.16677 11.7585 0.91864 10.5 0.91864ZM13.0971 11.7492C13.1869 11.8383 13.2582 11.9444 13.3069 12.0613C13.3555 12.1782 13.3806 12.3036 13.3806 12.4303C13.3806 12.5569 13.3555 12.6823 13.3069 12.7992C13.2582 12.9161 13.1869 13.0222 13.0971 13.1114C13.008 13.2013 12.902 13.2727 12.7852 13.3214C12.6685 13.3701 12.5432 13.3951 12.4167 13.3951C12.2902 13.3951 12.1649 13.3701 12.0481 13.3214C11.9314 13.2727 11.8254 13.2013 11.7363 13.1114L10.5 11.8643L9.26377 13.1114C9.17469 13.2013 9.06869 13.2727 8.95191 13.3214C8.83513 13.3701 8.70987 13.3951 8.58336 13.3951C8.45685 13.3951 8.33159 13.3701 8.2148 13.3214C8.09802 13.2727 7.99203 13.2013 7.90294 13.1114C7.81312 13.0222 7.74182 12.9161 7.69317 12.7992C7.64452 12.6823 7.61947 12.5569 7.61947 12.4303C7.61947 12.3036 7.64452 12.1782 7.69317 12.0613C7.74182 11.9444 7.81312 11.8383 7.90294 11.7492L9.14878 10.5117L7.90294 9.27416C7.72248 9.09352 7.6211 8.84852 7.6211 8.59306C7.6211 8.3376 7.72248 8.09259 7.90294 7.91195C8.0834 7.73131 8.32815 7.62983 8.58336 7.62983C8.83856 7.62983 9.08332 7.73131 9.26377 7.91195L10.5 9.15905L11.7363 7.91195C11.9167 7.73131 12.1615 7.62983 12.4167 7.62983C12.6719 7.62983 12.9167 7.73131 13.0971 7.91195C13.2776 8.09259 13.3789 8.3376 13.3789 8.59306C13.3789 8.84852 13.2776 9.09352 13.0971 9.27416L11.8513 10.5117L13.0971 11.7492Z" fill="#3D3D3D"/>
</svg>
