<svg xmlns="http://www.w3.org/2000/svg" xmlns:xlink="http://www.w3.org/1999/xlink" width="1080" zoomAndPan="magnify" viewBox="0 0 810 809.999993" height="1080" preserveAspectRatio="xMidYMid meet" version="1.0"><defs><clipPath id="10a924c23a"><path d="M 40.5 40.5 L 769 40.5 L 769 769 L 40.5 769 Z M 40.5 40.5 " clip-rule="nonzero"/></clipPath></defs><g clip-path="url(#10a924c23a)"><path fill="#8e6cea" d="M 404.265625 40.117188 C 203.476562 40.117188 40.117188 203.476562 40.117188 404.265625 C 40.117188 605.058594 203.476562 768.414062 404.265625 768.414062 C 605.058594 768.414062 768.414062 605.058594 768.414062 404.265625 C 768.414062 203.476562 605.058594 40.117188 404.265625 40.117188 Z M 494.828125 417.085938 L 435.582031 417.085938 C 435.582031 511.738281 435.582031 628.277344 435.582031 628.277344 L 347.792969 628.277344 C 347.792969 628.277344 347.792969 512.867188 347.792969 417.085938 L 306.0625 417.085938 L 306.0625 342.457031 L 347.792969 342.457031 L 347.792969 294.183594 C 347.792969 259.609375 364.222656 205.589844 436.390625 205.589844 L 501.414062 205.835938 L 501.414062 278.28125 C 501.414062 278.28125 461.882812 278.28125 454.195312 278.28125 C 446.511719 278.28125 435.597656 282.125 435.597656 298.613281 L 435.597656 342.46875 L 502.484375 342.46875 Z M 494.828125 417.085938 " fill-opacity="1" fill-rule="nonzero"/></g></svg>