<svg xmlns="http://www.w3.org/2000/svg" xmlns:xlink="http://www.w3.org/1999/xlink" width="1080" zoomAndPan="magnify" viewBox="0 0 810 809.999993" height="1080" preserveAspectRatio="xMidYMid meet" version="1.0"><defs><clipPath id="f0964e5ac2"><path d="M 25.792969 25.792969 L 784.042969 25.792969 L 784.042969 784.042969 L 25.792969 784.042969 Z M 25.792969 25.792969 " clip-rule="nonzero"/></clipPath></defs><path fill="#8e6cea" d="M 519.914062 275.375 C 511.890625 275.375 505.363281 281.898438 505.363281 289.921875 C 505.363281 297.945312 511.890625 304.46875 519.914062 304.46875 C 527.9375 304.46875 534.464844 297.945312 534.464844 289.921875 C 534.464844 281.898438 527.9375 275.375 519.914062 275.375 Z M 519.914062 275.375 " fill-opacity="1" fill-rule="nonzero"/><path fill="#8e6cea" d="M 473.914062 213.035156 L 335.921875 213.035156 C 268.160156 213.035156 213.03125 268.160156 213.03125 335.921875 L 213.03125 473.914062 C 213.03125 541.675781 268.160156 596.800781 335.921875 596.800781 L 473.914062 596.800781 C 541.675781 596.800781 596.800781 541.675781 596.800781 473.914062 L 596.800781 335.921875 C 596.804688 268.160156 541.675781 213.035156 473.914062 213.035156 Z M 404.917969 512.023438 C 345.859375 512.023438 297.816406 463.976562 297.816406 404.917969 C 297.816406 345.859375 345.859375 297.8125 404.917969 297.8125 C 463.976562 297.8125 512.019531 345.859375 512.019531 404.917969 C 512.019531 463.976562 463.976562 512.023438 404.917969 512.023438 Z M 519.914062 327.421875 C 499.234375 327.421875 482.414062 310.597656 482.414062 289.921875 C 482.414062 269.246094 499.234375 252.421875 519.914062 252.421875 C 540.59375 252.421875 557.414062 269.246094 557.414062 289.921875 C 557.414062 310.597656 540.59375 327.421875 519.914062 327.421875 Z M 519.914062 327.421875 " fill-opacity="1" fill-rule="nonzero"/><path fill="#8e6cea" d="M 404.917969 320.765625 C 358.515625 320.765625 320.765625 358.515625 320.765625 404.917969 C 320.765625 451.320312 358.519531 489.066406 404.917969 489.066406 C 451.316406 489.066406 489.066406 451.320312 489.066406 404.917969 C 489.066406 358.515625 451.316406 320.765625 404.917969 320.765625 Z M 404.917969 320.765625 " fill-opacity="1" fill-rule="nonzero"/><g clip-path="url(#f0964e5ac2)"><path fill="#8e6cea" d="M 404.917969 25.792969 C 195.894531 25.792969 25.792969 195.894531 25.792969 404.917969 C 25.792969 613.941406 195.894531 784.042969 404.917969 784.042969 C 613.941406 784.042969 784.042969 613.941406 784.042969 404.917969 C 784.042969 195.894531 613.941406 25.792969 404.917969 25.792969 Z M 619.753906 473.914062 C 619.753906 554.332031 554.332031 619.753906 473.914062 619.753906 L 335.921875 619.753906 C 255.503906 619.753906 190.078125 554.332031 190.078125 473.914062 L 190.078125 335.921875 C 190.078125 255.503906 255.503906 190.078125 335.921875 190.078125 L 473.914062 190.078125 C 554.332031 190.078125 619.753906 255.503906 619.753906 335.921875 Z M 619.753906 473.914062 " fill-opacity="1" fill-rule="nonzero"/></g></svg>