<svg width="20" height="31" viewBox="0 0 20 31" fill="none" xmlns="http://www.w3.org/2000/svg">
<path d="M0.731716 0C0.308091 0 0 0.308091 0 0.731716V30.1159C0 30.5395 0.308091 30.8476 0.731716 30.8476H18.5625C18.9861 30.8476 19.2942 30.5395 19.2942 30.1159V0.731716C19.2942 0.308091 18.9861 0 18.5625 0L0.731716 0ZM3.85114 3.85114H15.4046V23.1068H3.85114V3.85114ZM9.62785 25.0324C10.7062 25.0324 11.5534 25.8797 11.5534 26.958C11.5534 28.0363 10.7062 28.8835 9.62785 28.8835C8.54953 28.8835 7.70228 28.0363 7.70228 26.958C7.70228 25.8797 8.54953 25.0324 9.62785 25.0324Z" fill="white"/>
</svg>
