<svg xmlns="http://www.w3.org/2000/svg" xmlns:xlink="http://www.w3.org/1999/xlink" width="1080" zoomAndPan="magnify" viewBox="0 0 810 809.999993" height="1080" preserveAspectRatio="xMidYMid meet" version="1.0"><defs><clipPath id="98fd032be5"><path d="M 54.117188 54.117188 L 756.117188 54.117188 L 756.117188 756.117188 L 54.117188 756.117188 Z M 54.117188 54.117188 " clip-rule="nonzero"/></clipPath></defs><g clip-path="url(#98fd032be5)"><path fill="#8e6cea" d="M 405.117188 54.117188 C 211.265625 54.117188 54.117188 211.265625 54.117188 405.117188 C 54.117188 598.96875 211.265625 756.117188 405.117188 756.117188 C 598.96875 756.117188 756.117188 598.96875 756.117188 405.117188 C 756.117188 211.265625 598.96875 54.117188 405.117188 54.117188 Z M 347.617188 405.117188 C 347.617188 410.972656 347.0625 416.695312 346.015625 422.246094 L 431.804688 465.140625 C 448.832031 446.496094 473.433594 434.890625 500.746094 435.199219 C 550.40625 435.765625 590.96875 476.285156 591.578125 525.949219 C 592.203125 577.101562 551.039062 618.789062 500.082031 619.003906 C 450.125 619.21875 409.472656 580.097656 407.824219 530.167969 C 407.59375 523.242188 408.144531 516.488281 409.375 509.972656 L 323.585938 467.078125 C 306.78125 485.476562 282.59375 497.023438 255.710938 497.023438 C 204.515625 497.023438 163.101562 455.164062 163.8125 403.808594 C 164.503906 354.203125 205.066406 313.761719 254.675781 313.214844 C 281.972656 312.914062 306.566406 324.519531 323.585938 343.15625 L 409.375 300.261719 C 408.144531 293.746094 407.59375 286.988281 407.824219 280.0625 C 409.472656 230.136719 450.125 191.015625 500.082031 191.226562 C 551.039062 191.445312 592.203125 233.132812 591.578125 284.285156 C 590.972656 333.945312 550.410156 374.46875 500.746094 375.03125 C 473.433594 375.339844 448.832031 363.738281 431.804688 345.09375 L 346.015625 387.988281 C 347.0625 393.539062 347.617188 399.261719 347.617188 405.117188 Z M 347.617188 405.117188 " fill-opacity="1" fill-rule="nonzero"/></g></svg>