<svg xmlns="http://www.w3.org/2000/svg" xmlns:xlink="http://www.w3.org/1999/xlink" width="1080" zoomAndPan="magnify" viewBox="0 0 810 809.999993" height="1080" preserveAspectRatio="xMidYMid meet" version="1.0"><defs><clipPath id="e3347d4293"><path d="M 29.535156 29.535156 L 744 29.535156 L 744 745 L 29.535156 745 Z M 29.535156 29.535156 " clip-rule="nonzero"/></clipPath></defs><g clip-path="url(#e3347d4293)"><path fill="#8e6cea" d="M 29.535156 386.804688 C 29.535156 189.597656 189.523438 29.609375 386.734375 29.609375 C 583.941406 29.609375 743.929688 189.453125 743.929688 386.804688 C 743.929688 584.015625 583.941406 744.003906 386.734375 744.003906 C 189.523438 744.003906 29.535156 584.160156 29.535156 386.804688 " fill-opacity="1" fill-rule="nonzero"/></g><path fill="#8e6cea" d="M 640.78125 135.640625 C 780.285156 275.144531 780.285156 501.351562 640.78125 640.710938 C 501.277344 780.214844 275.074219 780.214844 135.714844 640.710938 Z M 640.78125 135.640625 " fill-opacity="1" fill-rule="nonzero"/><path fill="#8e6cea" d="M 548.164062 210.226562 L 535.035156 223.355469 L 513.542969 201.859375 L 466.945312 248.457031 L 435.925781 217.296875 L 416.882812 236.339844 L 411.980469 231.433594 L 387.308594 256.101562 L 392.214844 261.007812 L 374.613281 278.609375 L 383.847656 287.839844 L 270.3125 337.898438 L 251.125 318.710938 L 209 324.339844 L 182.167969 355.355469 L 175.097656 394.738281 L 177.550781 397.191406 L 177.261719 397.480469 L 209.144531 429.363281 L 222.992188 496.300781 L 462.472656 735.78125 C 617.410156 702.3125 734.988281 568.289062 743.355469 405.414062 Z M 548.164062 210.226562 " fill-opacity="1" fill-rule="nonzero"/><path fill="#ffffff" d="M 452.230469 460.523438 C 450.066406 459.082031 447.46875 458.214844 444.871094 458.214844 C 442.707031 458.214844 440.398438 458.792969 438.378906 460.234375 C 419.480469 471.488281 397.121094 477.691406 375.046875 477.691406 C 358.457031 477.691406 342.011719 474.230469 327.007812 466.871094 L 326.863281 466.871094 C 324.554688 466.007812 322.101562 463.988281 319.21875 462.109375 C 317.773438 461.246094 316.332031 460.234375 314.601562 459.660156 C 313.015625 458.9375 311.140625 458.503906 309.261719 458.503906 C 307.675781 458.503906 305.945312 458.9375 304.359375 459.660156 C 304.214844 459.660156 304.214844 459.660156 304.070312 459.804688 C 301.472656 460.8125 299.453125 462.6875 298.15625 464.851562 C 296.855469 467.015625 296.136719 469.613281 296.136719 472.210938 C 296.136719 474.519531 296.710938 476.828125 297.867188 478.988281 C 298.875 481.011719 300.609375 482.742188 302.773438 483.894531 C 324.121094 498.320312 349.222656 504.8125 374.472656 504.8125 C 397.265625 504.8125 420.058594 499.476562 440.542969 489.953125 L 440.832031 489.953125 C 443.574219 488.367188 447.035156 486.925781 450.496094 484.90625 C 452.230469 483.894531 453.816406 482.597656 455.257812 481.011719 C 456.703125 479.421875 457.710938 477.402344 458.433594 475.09375 C 458.722656 474.085938 458.867188 473.074219 458.867188 472.066406 C 458.867188 470.191406 458.433594 468.316406 457.566406 466.726562 C 456.269531 463.988281 454.394531 461.96875 452.230469 460.523438 M 591.445312 358.675781 C 591.445312 359.683594 591.589844 360.550781 591.589844 361.558594 C 591.589844 371.945312 588.269531 382.042969 582.644531 390.410156 C 577.449219 398.347656 570.238281 404.984375 562.015625 409.453125 C 562.589844 413.636719 562.878906 417.820312 562.878906 422.007812 C 562.878906 444.367188 555.089844 466.4375 541.671875 484.183594 C 516.859375 517.21875 478.628906 536.839844 439.964844 546.648438 C 419.335938 551.699219 398.128906 554.152344 376.921875 554.152344 C 345.328125 554.152344 313.734375 548.382812 284.160156 536.695312 C 253.578125 524.144531 224.4375 504.09375 206.546875 474.804688 C 196.882812 459.082031 191.6875 440.761719 191.6875 422.292969 C 191.6875 418.109375 191.976562 413.925781 192.554688 409.742188 C 184.476562 405.269531 177.550781 398.78125 172.355469 391.132812 C 166.875 382.910156 163.269531 373.246094 162.835938 363 L 162.835938 362.859375 C 162.835938 348.574219 169.039062 335.015625 178.703125 325.058594 C 188.371094 315.105469 201.5 308.613281 215.636719 308.613281 L 216.214844 308.613281 C 217.65625 308.46875 219.242188 308.46875 220.683594 308.46875 C 227.753906 308.46875 234.824219 309.625 241.605469 312.222656 C 247.375 314.671875 253.144531 317.558594 258.195312 321.597656 C 259.78125 320.734375 261.65625 319.722656 263.675781 319 C 294.691406 300.679688 330.613281 293.609375 365.671875 291.589844 C 365.960938 274.28125 368.125 256.101562 376.636719 240.089844 C 383.703125 226.816406 395.964844 216.574219 410.535156 212.96875 L 410.679688 212.96875 C 416.164062 211.957031 421.789062 211.378906 427.414062 211.378906 C 442.273438 211.378906 456.84375 214.84375 470.550781 220.324219 C 476.609375 211.234375 485.265625 204.023438 495.363281 199.984375 L 495.652344 199.984375 C 501.566406 198.109375 507.914062 197.097656 514.261719 197.097656 C 520.898438 197.097656 527.679688 198.253906 533.882812 201.136719 L 534.027344 201.136719 C 543.117188 204.601562 550.617188 211.09375 556.097656 219.027344 C 561.582031 227.105469 564.753906 236.625 564.753906 246.582031 C 564.753906 248.457031 564.609375 250.1875 564.464844 252.0625 L 564.464844 252.207031 C 563.457031 264.902344 556.964844 276.15625 547.730469 284.089844 C 538.5 292.167969 526.523438 296.929688 514.40625 296.929688 C 512.386719 296.929688 510.511719 296.785156 508.492188 296.496094 C 496.375 295.628906 484.976562 289.714844 476.753906 280.914062 C 468.386719 272.261719 463.050781 260.574219 463.050781 248.023438 C 463.050781 247.445312 463.050781 246.726562 463.191406 246.148438 C 451.796875 241.097656 439.679688 236.914062 427.703125 236.914062 C 425.972656 236.914062 424.242188 237.058594 422.511719 237.203125 C 413.566406 238.070312 405.199219 243.695312 401.015625 251.917969 C 394.8125 263.890625 393.65625 277.886719 393.511719 291.878906 C 427.992188 294.1875 462.761719 302.410156 493.199219 319.867188 L 493.632812 320.15625 C 494.210938 320.445312 495.21875 321.019531 496.230469 321.597656 C 498.394531 319.867188 500.558594 318.136719 503.011719 316.691406 C 512.242188 310.488281 523.207031 307.460938 534.171875 307.460938 C 539.074219 307.460938 543.835938 308.039062 548.597656 309.335938 L 548.886719 309.335938 C 559.996094 312.222656 570.09375 318.570312 577.738281 327.222656 C 585.386719 335.878906 590.433594 346.699219 591.445312 358.675781 M 489.738281 245.714844 L 489.738281 247.15625 C 490.027344 253.21875 492.765625 258.699219 497.09375 262.882812 C 501.421875 267.066406 507.195312 269.519531 512.964844 269.519531 L 514.40625 269.519531 C 520.320312 269.519531 526.09375 267.066406 530.566406 262.882812 C 534.890625 258.699219 537.777344 253.074219 538.066406 247.15625 C 538.066406 246.726562 538.066406 246.292969 538.066406 245.714844 C 538.066406 239.511719 535.179688 233.597656 530.566406 229.125 C 526.09375 224.796875 519.890625 222.054688 513.828125 222.054688 C 511.808594 222.054688 509.933594 222.34375 508.058594 222.921875 C 503.15625 224.21875 498.394531 227.25 495.074219 231.289062 C 491.757812 235.472656 489.738281 240.523438 489.738281 245.714844 M 234.96875 338.1875 C 230.351562 336.023438 225.589844 334.4375 220.828125 334.582031 C 220.109375 334.582031 219.242188 334.582031 218.519531 334.726562 L 218.234375 334.726562 C 211.453125 334.871094 204.671875 337.898438 199.480469 342.660156 C 194.285156 347.421875 190.96875 353.769531 190.679688 360.695312 L 190.679688 362.570312 C 190.679688 366.898438 191.976562 371.082031 194.285156 374.832031 C 196.015625 377.71875 198.179688 380.3125 200.632812 382.476562 C 208.421875 365.164062 220.828125 350.449219 234.96875 338.1875 M 535.613281 423.015625 C 535.613281 407.578125 529.988281 392 521.042969 379.59375 C 503.011719 354.632812 475.167969 338.1875 446.171875 329.101562 L 446.027344 329.101562 C 440.398438 327.367188 434.773438 325.925781 429.148438 324.628906 C 412.125 320.734375 394.8125 318.855469 377.355469 318.855469 C 353.984375 318.855469 330.613281 322.320312 308.398438 329.246094 C 279.402344 338.476562 251.414062 354.632812 233.378906 379.738281 C 224.292969 392.289062 218.953125 407.867188 218.953125 423.304688 C 218.953125 428.929688 219.675781 434.699219 221.117188 440.328125 C 224.4375 452.734375 230.785156 463.84375 239.007812 473.652344 C 247.230469 483.316406 257.472656 491.683594 268.148438 498.464844 C 270.457031 499.910156 272.910156 501.351562 275.363281 502.648438 C 306.378906 519.960938 342.011719 527.464844 377.5 527.464844 C 383.558594 527.464844 389.472656 527.320312 395.535156 526.886719 C 431.167969 524 467.089844 513.46875 495.941406 491.828125 C 505.175781 485.050781 513.683594 476.828125 520.464844 467.449219 C 527.246094 458.070312 532.152344 447.539062 534.460938 436.144531 C 535.179688 431.671875 535.613281 427.34375 535.613281 423.015625 M 563.746094 361.558594 C 563.746094 357.808594 562.878906 354.058594 561.003906 350.59375 C 558.550781 345.402344 554.511719 341.507812 549.75 338.910156 C 544.992188 336.167969 539.507812 334.871094 533.882812 334.871094 C 528.832031 334.871094 523.785156 336.023438 519.3125 338.1875 C 533.449219 350.449219 545.855469 365.308594 553.933594 382.621094 C 556.53125 380.3125 558.695312 377.574219 560.425781 374.542969 C 562.589844 370.503906 563.746094 365.886719 563.746094 361.558594 " fill-opacity="1" fill-rule="nonzero"/><path fill="#ef4923" d="M 469.253906 391.566406 C 470.40625 394.453125 470.839844 397.335938 470.839844 400.222656 C 470.839844 406.136719 468.820312 411.761719 465.5 416.378906 C 462.183594 420.996094 457.421875 424.457031 451.796875 426.046875 L 451.652344 426.046875 C 449.054688 426.910156 446.3125 427.34375 443.71875 427.34375 C 437.515625 427.34375 431.3125 425.035156 426.40625 421.285156 C 421.5 417.535156 417.894531 412.050781 416.738281 405.558594 C 416.308594 403.828125 416.164062 402.242188 416.164062 400.511719 C 416.164062 394.882812 418.039062 389.546875 421.210938 385.074219 C 424.386719 380.601562 428.859375 377.140625 434.050781 375.265625 C 436.9375 374.109375 440.109375 373.675781 443.140625 373.675781 C 448.765625 373.675781 454.25 375.410156 458.867188 378.4375 C 463.480469 381.46875 467.234375 385.941406 469.109375 391.566406 C 469.253906 391.421875 469.253906 391.421875 469.253906 391.566406 " fill-opacity="1" fill-rule="nonzero"/><path fill="#ef4923" d="M 302.195312 425.902344 C 302.339844 425.902344 302.339844 425.902344 302.195312 425.902344 C 305.078125 426.910156 307.820312 427.34375 310.707031 427.34375 C 317.628906 427.34375 324.410156 424.457031 329.460938 419.84375 C 334.507812 415.226562 337.972656 408.589844 337.972656 401.085938 C 337.972656 400.941406 337.972656 400.65625 337.972656 400.511719 C 337.972656 400.222656 337.972656 399.789062 337.972656 399.5 C 337.972656 392 334.507812 385.507812 329.460938 380.746094 C 324.410156 376.128906 317.628906 373.246094 310.707031 373.246094 C 308.832031 373.246094 306.957031 373.53125 305.078125 373.964844 C 295.847656 375.839844 287.769531 382.765625 284.738281 392.144531 C 283.871094 394.738281 283.441406 397.335938 283.441406 400.078125 C 283.441406 405.847656 285.316406 411.472656 288.632812 416.089844 C 292.097656 420.707031 296.566406 424.167969 302.195312 425.902344 " fill-opacity="1" fill-rule="nonzero"/></svg>