<svg xmlns="http://www.w3.org/2000/svg" xmlns:xlink="http://www.w3.org/1999/xlink" width="1080" zoomAndPan="magnify" viewBox="0 0 810 809.999993" height="1080" preserveAspectRatio="xMidYMid meet" version="1.0"><defs><clipPath id="dbe1ba0d8a"><path d="M 47.257812 47.257812 L 762.757812 47.257812 L 762.757812 762.757812 L 47.257812 762.757812 Z M 47.257812 47.257812 " clip-rule="nonzero"/></clipPath></defs><g clip-path="url(#dbe1ba0d8a)"><path fill="#8e6cea" d="M 762.757812 405.007812 C 762.757812 602.664062 602.664062 762.757812 405.007812 762.757812 C 207.351562 762.757812 47.257812 602.664062 47.257812 405.007812 C 47.257812 207.351562 207.351562 47.257812 405.007812 47.257812 C 602.664062 47.257812 762.757812 207.351562 762.757812 405.007812 Z M 339.539062 593.722656 C 498.203125 593.722656 584.957031 462.25 584.957031 348.304688 C 584.957031 344.550781 584.957031 340.792969 584.777344 337.214844 C 601.59375 325.050781 616.261719 309.847656 627.886719 292.496094 C 612.503906 299.292969 595.867188 303.945312 578.339844 306.089844 C 596.226562 295.359375 609.820312 278.542969 616.261719 258.332031 C 599.625 268.167969 581.199219 275.324219 561.523438 279.261719 C 545.785156 262.445312 523.425781 252.070312 498.5625 252.070312 C 450.980469 252.070312 412.34375 290.707031 412.34375 338.289062 C 412.34375 345.085938 413.058594 351.703125 414.667969 357.964844 C 342.9375 354.386719 279.4375 320.042969 236.867188 267.8125 C 229.53125 280.511719 225.238281 295.359375 225.238281 311.101562 C 225.238281 340.972656 240.445312 367.445312 263.699219 382.828125 C 249.566406 382.472656 236.328125 378.535156 224.703125 372.097656 C 224.703125 372.453125 224.703125 372.8125 224.703125 373.167969 C 224.703125 415.027344 254.394531 449.726562 293.925781 457.777344 C 286.773438 459.746094 279.082031 460.816406 271.210938 460.816406 C 265.664062 460.816406 260.300781 460.28125 254.933594 459.207031 C 265.84375 493.550781 297.683594 518.414062 335.425781 519.132812 C 305.914062 542.207031 268.707031 555.980469 228.28125 555.980469 C 221.304688 555.980469 214.507812 555.621094 207.710938 554.726562 C 245.453125 579.414062 290.886719 593.722656 339.539062 593.722656 " fill-opacity="1" fill-rule="nonzero"/></g></svg>