<svg xmlns="http://www.w3.org/2000/svg" xmlns:xlink="http://www.w3.org/1999/xlink" width="1080" zoomAndPan="magnify" viewBox="0 0 810 809.999993" height="1080" preserveAspectRatio="xMidYMid meet" version="1.0"><defs><clipPath id="7b57742f9f"><path d="M 37.527344 37.527344 L 772.527344 37.527344 L 772.527344 772.527344 L 37.527344 772.527344 Z M 37.527344 37.527344 " clip-rule="nonzero"/></clipPath></defs><g clip-path="url(#7b57742f9f)"><path fill="#8e6cea" d="M 405.027344 37.527344 C 202.027344 37.527344 37.527344 202.027344 37.527344 405.027344 C 37.527344 608.027344 202.027344 772.527344 405.027344 772.527344 C 608.027344 772.527344 772.527344 608.027344 772.527344 405.027344 C 772.207031 202.027344 607.707031 37.527344 405.027344 37.527344 Z M 616.617188 507.796875 C 612.480469 534.84375 588.933594 554.570312 561.570312 554.570312 L 248.164062 554.570312 C 220.796875 554.570312 197.253906 534.84375 193.117188 507.796875 C 189.296875 482.664062 185.480469 447.664062 185.164062 404.707031 C 185.480469 361.753906 188.980469 327.070312 193.117188 301.617188 C 197.253906 274.570312 220.796875 254.84375 248.164062 254.84375 L 561.570312 254.84375 C 588.933594 254.84375 612.480469 274.570312 616.617188 301.617188 C 620.433594 326.753906 624.253906 361.753906 624.570312 404.707031 C 624.253906 447.664062 620.433594 482.664062 616.617188 507.796875 Z M 616.617188 507.796875 " fill-opacity="1" fill-rule="nonzero"/></g><path fill="#8e6cea" d="M 358.570312 345.207031 L 358.570312 464.527344 L 469.617188 405.027344 Z M 358.570312 345.207031 " fill-opacity="1" fill-rule="nonzero"/></svg>